PathFileType	4	(X/Y/Z)	C:/Users/beibeiliu/ov580/test_trc/User3\sequence.18_training_dense_left.trc
DataRate	CameraRate	NumFrames	NumMarkers	Units	OrigDataRate	OrigDataStartFrame	OrigNumFrames
120	120	7	19	mm	120	25	72
Frame#	Time	ThumbCMC			ThumbMCP			ThumbIP			ThumbTip			IndexMCP			IndexPIP			IndexTip			MiddleMCP			MiddlePIP			MiddleTip			RingMCP			RingPIP			RingTip			PinkyMCP			PinkyPIP			PinkyTip			BackHand1			BackHand2			BackHand3	
		X0	Y0	Z0	X1	Y1	Z1	X2	Y2	Z2	X3	Y3	Z3	X4	Y4	Z4	X5	Y5	Z5	X6	Y6	Z6	X7	Y7	Z7	X8	Y8	Z8	X9	Y9	Z9	X10	Y10	Z10	X11	Y11	Z11	X12	Y12	Z12	X13	Y13	Z13	X14	Y14	Z14	X15	Y15	Z15	X16	Y16	Z16	X17	Y17	Z17	X18	Y18	Z18	
24	0.2	-142.711	25.4824	15.1644	-133.131	34.9363	-14.6444	-118.446	37.706	-35.5405	-101.583	38.9876	-56.0342	-97.7625	10.4043	-48.9524	-77.6312	34.0664	-51.7296	-93.0728	43.5015	-22.0805	-77.8422	5.87085	-39.1252	-62.7033	32.5806	-29.0503	-89.147	23.2509	2.60552	-63.7341	-1.20953	-22.7531	-55.0421	25.4329	-11.9129	-78.0144	22.0343	11.7476	-57.0209	-7.23534	-8.05835	-48.7756	15.8555	0.66045	-73.1864	17.4937	19.7328	-107.208	-29.1884	8.72432	-116.245	-31.0793	37.9385	-134.274	-12.2762	13.9073	
25	0.208333	-146.69	11.8082	19.8097	-146.503	20.5212	-12.6178	-135.879	19.7388	-43.3545	-122.598	20.0455	-61.9882	-110.45	-8.79327	-51.528	-95.509	19.4524	-55.5987	-109.543	26.073	-26.341	-92.1696	-8.74623	-45.4778	-81.3929	21.5981	-37.633	-101.543	11.9475	-4.24912	-76.4765	-14.3882	-29.4249	-68.686	14.3622	-17.4004	-92.1603	8.03904	7.16489	-69.6527	-18.3546	-15.0212	-63.3777	7.35173	-7.94105	-82.849	5.43135	14.7871	-111.199	-42.1728	15.2552	-123.523	-38.5004	39.1741	-141.441	-23.5892	16.2976	
26	0.216667	-158.884	4.88203	19.009	-159.286	7.41106	-12.1969	-152.241	1.49487	-39.6572	-139.935	-3.09674	-59.1554	-139.067	-25.2463	-49.0615	-115.738	-6.123	-62.5221	-121.034	10.4916	-34.825	-112.286	-29.9184	-46.0003	-100.648	-1.15615	-46.9115	-114.269	1.96722	-10.3783	-100.939	-31.7678	-34.9469	-87.6946	-4.03672	-27.8415	-107.808	-2.86339	0.148262	-87.2766	-39.7011	-17.4266	-81.7527	-11.675	-17.3625	-93.5381	-6.21151	8.7874	-125.345	-53.9048	14.4386	-132.367	-47.5923	48.5044	-155.921	-30.8788	20.4473	
27	0.225	-162.481	4.37667	23.7791	-169.248	10.0025	-7.02769	-171.278	-0.732273	-39.4924	-160.514	-11.6729	-60.0817	-162.583	-34.3529	-42.4708	-141.637	-17.6658	-65.7277	-132.24	-2.17066	-38.8676	-142.294	-39.819	-46.9065	-117.381	-20.2344	-49.0273	-129.861	-9.63373	-9.88636	-125.589	-49.7079	-32.9082	-105.47	-24.3932	-30.3386	-116.344	-16.4722	-2.49202	-112.974	-58.6971	-19.6527	-100.566	-35.63	-24.4536	-107.156	-22.9289	3.27981	-152.046	-54.8915	19.2747	-148.064	-48.054	51.0738	-170.697	-30.303	24.4463	
28	0.233333	-164.796	16.5077	22.4856	-168.782	18.1811	-3.84006	-175.018	8.93141	-34.2127	-167.654	-10.503	-49.2887	-185.128	-20.3382	-43.4403	-163.384	-16.6089	-66.3249	-140.683	-3.13823	-40.3511	-169.668	-33.5626	-42.4275	-137.635	-22.254	-51.1438	-136.604	-14.8081	-15.5886	-152.831	-46.8351	-34.9514	-126.344	-31.1861	-34.9792	-130.732	-20.1236	-5.79688	-146.479	-59.5991	-21.2108	-121.716	-44.4702	-25.5902	-121.896	-30.5189	1.46678	-176.034	-50.0578	19.5366	-167.104	-38.1217	53.2036	-183.521	-14.358	30.5846	
29	0.241667	-151.061	27.4291	24.0842	-159.434	30.8777	-6.21546	-167.573	29.0052	-36.8281	-169.496	1.11883	-50.3949	-191.423	5.83013	-40.6847	-170.476	3.16344	-67.8714	-142.471	5.98468	-45.7382	-183.611	-17.6232	-44.5694	-151.684	-17.9315	-53.3528	-145.439	-7.97286	-13.7981	-174.594	-31.6026	-35.1188	-144.699	-31.2402	-37.4459	-140.66	-22.1182	-6.36805	-172.367	-45.2588	-22.7131	-143.924	-42.5164	-29.4091	-137.681	-29.9518	-2.62253	-190.752	-21.3509	22.3229	-177.964	-20.0759	49.1028	-183.084	10.2379	30.983	
30	0.25	-141.479	31.176	21.2141	-142.728	44.0549	-9.2931	-151.492	38.3438	-34.5532	-165.041	16.4518	-48.3464	-181.37	35.4083	-46.5737	-167.246	20.5161	-68.5484	-139.309	7.01993	-47.0736	-186.636	8.51731	-43.2076	-158.385	-7.21183	-55.48	-148	-4.54418	-19.2164	-185.15	-9.66022	-38.9952	-157.422	-24.1945	-39.2244	-147.771	-11.4989	-10.7657	-187.612	-25.0711	-26.9435	-163.478	-33.7634	-32.582	-148.079	-25.4817	-2.97807	-199.228	2.04372	19.3122	-183.034	-1.8338	48.9424	-175.653	28.8189	29.5498	
